<mxfile host="app.diagrams.net" modified="2022-04-18T01:48:12.519Z" agent="5.0 (Macintosh; Intel Mac OS X 10_15_7) AppleWebKit/537.36 (KHTML, like Gecko) Chrome/100.0.4896.88 Safari/537.36" etag="Q9JIZGD5BJRtgqHiF7jY" version="17.4.4" type="github">
  <diagram id="1KYs7-IFY3hOEBhYpr0V" name="Page-1">
    <mxGraphModel dx="783" dy="505" grid="1" gridSize="10" guides="1" tooltips="1" connect="1" arrows="1" fold="1" page="1" pageScale="1" pageWidth="827" pageHeight="1169" math="0" shadow="0">
      <root>
        <mxCell id="0" />
        <mxCell id="1" parent="0" />
        <mxCell id="Hx0JEqSXZWxkl783i2Ut-3" value="" style="edgeStyle=orthogonalEdgeStyle;rounded=0;orthogonalLoop=1;jettySize=auto;html=1;" edge="1" parent="1" source="Hx0JEqSXZWxkl783i2Ut-1" target="Hx0JEqSXZWxkl783i2Ut-2">
          <mxGeometry relative="1" as="geometry" />
        </mxCell>
        <mxCell id="Hx0JEqSXZWxkl783i2Ut-6" value="朋友" style="edgeLabel;html=1;align=center;verticalAlign=middle;resizable=0;points=[];" vertex="1" connectable="0" parent="Hx0JEqSXZWxkl783i2Ut-3">
          <mxGeometry x="-0.35" y="-1" relative="1" as="geometry">
            <mxPoint x="8" y="-1" as="offset" />
          </mxGeometry>
        </mxCell>
        <mxCell id="Hx0JEqSXZWxkl783i2Ut-1" value="兰波" style="rounded=1;whiteSpace=wrap;html=1;" vertex="1" parent="1">
          <mxGeometry x="270" y="235" width="60" height="30" as="geometry" />
        </mxCell>
        <mxCell id="Hx0JEqSXZWxkl783i2Ut-8" value="" style="edgeStyle=orthogonalEdgeStyle;rounded=0;orthogonalLoop=1;jettySize=auto;html=1;" edge="1" parent="1" source="Hx0JEqSXZWxkl783i2Ut-2" target="Hx0JEqSXZWxkl783i2Ut-7">
          <mxGeometry relative="1" as="geometry" />
        </mxCell>
        <mxCell id="Hx0JEqSXZWxkl783i2Ut-2" value="曼根" style="rounded=1;whiteSpace=wrap;html=1;" vertex="1" parent="1">
          <mxGeometry x="400" y="230" width="70" height="40" as="geometry" />
        </mxCell>
        <mxCell id="Hx0JEqSXZWxkl783i2Ut-4" value="哈德利&lt;br&gt;警察" style="rounded=1;whiteSpace=wrap;html=1;" vertex="1" parent="1">
          <mxGeometry x="310" y="160" width="80" height="40" as="geometry" />
        </mxCell>
        <mxCell id="Hx0JEqSXZWxkl783i2Ut-5" value="菲尔博士" style="rounded=1;whiteSpace=wrap;html=1;" vertex="1" parent="1">
          <mxGeometry x="200" y="160" width="80" height="40" as="geometry" />
        </mxCell>
        <mxCell id="Hx0JEqSXZWxkl783i2Ut-10" value="" style="edgeStyle=orthogonalEdgeStyle;rounded=0;orthogonalLoop=1;jettySize=auto;html=1;" edge="1" parent="1" source="Hx0JEqSXZWxkl783i2Ut-7" target="Hx0JEqSXZWxkl783i2Ut-9">
          <mxGeometry relative="1" as="geometry">
            <Array as="points">
              <mxPoint x="655" y="300" />
              <mxPoint x="565" y="300" />
            </Array>
          </mxGeometry>
        </mxCell>
        <mxCell id="Hx0JEqSXZWxkl783i2Ut-12" value="" style="edgeStyle=orthogonalEdgeStyle;rounded=0;orthogonalLoop=1;jettySize=auto;html=1;entryX=1;entryY=0.5;entryDx=0;entryDy=0;" edge="1" parent="1" source="Hx0JEqSXZWxkl783i2Ut-7" target="Hx0JEqSXZWxkl783i2Ut-11">
          <mxGeometry relative="1" as="geometry">
            <Array as="points">
              <mxPoint x="630" y="200" />
            </Array>
          </mxGeometry>
        </mxCell>
        <mxCell id="Hx0JEqSXZWxkl783i2Ut-14" value="" style="edgeStyle=orthogonalEdgeStyle;rounded=0;orthogonalLoop=1;jettySize=auto;html=1;entryX=0.5;entryY=0;entryDx=0;entryDy=0;" edge="1" parent="1" source="Hx0JEqSXZWxkl783i2Ut-7" target="Hx0JEqSXZWxkl783i2Ut-13">
          <mxGeometry relative="1" as="geometry">
            <Array as="points">
              <mxPoint x="655" y="330" />
              <mxPoint x="655" y="330" />
            </Array>
          </mxGeometry>
        </mxCell>
        <mxCell id="Hx0JEqSXZWxkl783i2Ut-20" value="" style="edgeStyle=orthogonalEdgeStyle;rounded=0;orthogonalLoop=1;jettySize=auto;html=1;entryX=0;entryY=0.5;entryDx=0;entryDy=0;" edge="1" parent="1" source="Hx0JEqSXZWxkl783i2Ut-7" target="Hx0JEqSXZWxkl783i2Ut-19">
          <mxGeometry relative="1" as="geometry">
            <Array as="points">
              <mxPoint x="730" y="250" />
              <mxPoint x="730" y="380" />
            </Array>
          </mxGeometry>
        </mxCell>
        <mxCell id="Hx0JEqSXZWxkl783i2Ut-22" value="" style="edgeStyle=orthogonalEdgeStyle;rounded=0;orthogonalLoop=1;jettySize=auto;html=1;entryX=0;entryY=0.5;entryDx=0;entryDy=0;" edge="1" parent="1" source="Hx0JEqSXZWxkl783i2Ut-7" target="Hx0JEqSXZWxkl783i2Ut-21">
          <mxGeometry relative="1" as="geometry">
            <Array as="points">
              <mxPoint x="730" y="250" />
              <mxPoint x="730" y="330" />
            </Array>
          </mxGeometry>
        </mxCell>
        <mxCell id="Hx0JEqSXZWxkl783i2Ut-28" style="edgeStyle=orthogonalEdgeStyle;rounded=0;orthogonalLoop=1;jettySize=auto;html=1;entryX=0;entryY=0.5;entryDx=0;entryDy=0;exitX=0.777;exitY=-0.008;exitDx=0;exitDy=0;exitPerimeter=0;" edge="1" parent="1" source="Hx0JEqSXZWxkl783i2Ut-7" target="Hx0JEqSXZWxkl783i2Ut-27">
          <mxGeometry relative="1" as="geometry" />
        </mxCell>
        <mxCell id="Hx0JEqSXZWxkl783i2Ut-29" value="朋友" style="edgeLabel;html=1;align=center;verticalAlign=middle;resizable=0;points=[];" vertex="1" connectable="0" parent="Hx0JEqSXZWxkl783i2Ut-28">
          <mxGeometry x="0.3956" relative="1" as="geometry">
            <mxPoint x="-5" as="offset" />
          </mxGeometry>
        </mxCell>
        <mxCell id="Hx0JEqSXZWxkl783i2Ut-31" style="edgeStyle=orthogonalEdgeStyle;rounded=0;orthogonalLoop=1;jettySize=auto;html=1;entryX=0;entryY=0.5;entryDx=0;entryDy=0;exitX=0.777;exitY=-0.008;exitDx=0;exitDy=0;exitPerimeter=0;" edge="1" parent="1" source="Hx0JEqSXZWxkl783i2Ut-7" target="Hx0JEqSXZWxkl783i2Ut-30">
          <mxGeometry relative="1" as="geometry">
            <Array as="points">
              <mxPoint x="680" y="153" />
            </Array>
          </mxGeometry>
        </mxCell>
        <mxCell id="Hx0JEqSXZWxkl783i2Ut-32" value="朋友" style="edgeLabel;html=1;align=center;verticalAlign=middle;resizable=0;points=[];" vertex="1" connectable="0" parent="Hx0JEqSXZWxkl783i2Ut-31">
          <mxGeometry x="0.3825" y="-2" relative="1" as="geometry">
            <mxPoint x="11" y="-2" as="offset" />
          </mxGeometry>
        </mxCell>
        <mxCell id="Hx0JEqSXZWxkl783i2Ut-34" style="edgeStyle=orthogonalEdgeStyle;rounded=0;orthogonalLoop=1;jettySize=auto;html=1;entryX=0.5;entryY=1;entryDx=0;entryDy=0;" edge="1" parent="1" source="Hx0JEqSXZWxkl783i2Ut-7" target="Hx0JEqSXZWxkl783i2Ut-23">
          <mxGeometry relative="1" as="geometry" />
        </mxCell>
        <mxCell id="Hx0JEqSXZWxkl783i2Ut-35" value="兄弟" style="edgeLabel;html=1;align=center;verticalAlign=middle;resizable=0;points=[];" vertex="1" connectable="0" parent="Hx0JEqSXZWxkl783i2Ut-34">
          <mxGeometry x="0.1023" relative="1" as="geometry">
            <mxPoint as="offset" />
          </mxGeometry>
        </mxCell>
        <mxCell id="Hx0JEqSXZWxkl783i2Ut-7" value="葛里莫" style="rounded=1;whiteSpace=wrap;html=1;fillColor=#f8cecc;strokeColor=#b85450;" vertex="1" parent="1">
          <mxGeometry x="610" y="230" width="90" height="40" as="geometry" />
        </mxCell>
        <mxCell id="Hx0JEqSXZWxkl783i2Ut-9" value="德瑞曼&lt;br&gt;在家住的朋友" style="rounded=1;whiteSpace=wrap;html=1;" vertex="1" parent="1">
          <mxGeometry x="520" y="357.5" width="80" height="42.5" as="geometry" />
        </mxCell>
        <mxCell id="Hx0JEqSXZWxkl783i2Ut-11" value="萝赛特&lt;br&gt;女儿" style="rounded=1;whiteSpace=wrap;html=1;" vertex="1" parent="1">
          <mxGeometry x="520" y="180" width="60" height="40" as="geometry" />
        </mxCell>
        <mxCell id="Hx0JEqSXZWxkl783i2Ut-13" value="安妮&lt;br&gt;女仆" style="rounded=1;whiteSpace=wrap;html=1;" vertex="1" parent="1">
          <mxGeometry x="615" y="362.5" width="80" height="37.5" as="geometry" />
        </mxCell>
        <mxCell id="Hx0JEqSXZWxkl783i2Ut-19" value="杜蒙&lt;br&gt;管家" style="rounded=1;whiteSpace=wrap;html=1;" vertex="1" parent="1">
          <mxGeometry x="770" y="360" width="80" height="40" as="geometry" />
        </mxCell>
        <mxCell id="Hx0JEqSXZWxkl783i2Ut-21" value="斯图尔特·米尔斯&lt;br&gt;秘书" style="rounded=1;whiteSpace=wrap;html=1;" vertex="1" parent="1">
          <mxGeometry x="770" y="310" width="100" height="40" as="geometry" />
        </mxCell>
        <mxCell id="Hx0JEqSXZWxkl783i2Ut-25" value="" style="edgeStyle=orthogonalEdgeStyle;rounded=0;orthogonalLoop=1;jettySize=auto;html=1;" edge="1" parent="1" source="Hx0JEqSXZWxkl783i2Ut-23" target="Hx0JEqSXZWxkl783i2Ut-24">
          <mxGeometry relative="1" as="geometry" />
        </mxCell>
        <mxCell id="Hx0JEqSXZWxkl783i2Ut-26" value="同事" style="edgeLabel;html=1;align=center;verticalAlign=middle;resizable=0;points=[];" vertex="1" connectable="0" parent="Hx0JEqSXZWxkl783i2Ut-25">
          <mxGeometry x="0.3" y="2" relative="1" as="geometry">
            <mxPoint x="9" y="-2" as="offset" />
          </mxGeometry>
        </mxCell>
        <mxCell id="Hx0JEqSXZWxkl783i2Ut-23" value="皮埃尔·弗雷" style="rounded=1;whiteSpace=wrap;html=1;fillColor=#f8cecc;strokeColor=#b85450;sketch=0;" vertex="1" parent="1">
          <mxGeometry x="615" y="80" width="80" height="40" as="geometry" />
        </mxCell>
        <mxCell id="Hx0JEqSXZWxkl783i2Ut-24" value="欧洛克" style="rounded=1;whiteSpace=wrap;html=1;" vertex="1" parent="1">
          <mxGeometry x="490" y="85" width="70" height="30" as="geometry" />
        </mxCell>
        <mxCell id="Hx0JEqSXZWxkl783i2Ut-27" value="杰罗姆·伯纳比" style="rounded=1;whiteSpace=wrap;html=1;" vertex="1" parent="1">
          <mxGeometry x="800" y="180" width="80" height="40" as="geometry" />
        </mxCell>
        <mxCell id="Hx0JEqSXZWxkl783i2Ut-30" value="佩蒂斯" style="rounded=1;whiteSpace=wrap;html=1;" vertex="1" parent="1">
          <mxGeometry x="800" y="135" width="70" height="35" as="geometry" />
        </mxCell>
      </root>
    </mxGraphModel>
  </diagram>
</mxfile>
